<svg xmlns="http://www.w3.org/2000/svg" x="0px" y="0px"
width="30" height="30"
viewBox="0 0 172 172"
style=" fill:#000000;"><g fill="none" fill-rule="nonzero" stroke="none" stroke-width="1" stroke-linecap="butt" stroke-linejoin="miter" stroke-miterlimit="10" stroke-dasharray="" stroke-dashoffset="0" font-family="none" font-weight="none" font-size="none" text-anchor="none" style="mix-blend-mode: normal"><path d="M0,172v-172h172v172z" fill="#ffffff"></path><g fill="#3498db"><path d="M45.10521,22.93333c-5.66422,0 -10.54779,4.24015 -11.35469,9.84297l-10.7612,75.35078c-0.0376,0.2671 -0.05631,0.53652 -0.05599,0.80625v28.66667c0,6.26689 5.19977,11.46667 11.46667,11.46667h103.2c6.26689,0 11.46667,-5.19977 11.46667,-11.46667v-28.66667c0.00032,-0.26973 -0.01839,-0.53915 -0.05599,-0.80625l-10.77239,-75.33958v-0.0112c-0.80118,-5.60567 -5.68266,-9.84297 -11.34349,-9.84297zM45.10521,34.4h81.78958l10.64922,74.53333h-35.39661c-2.36787,6.66787 -8.67113,11.46667 -16.14739,11.46667c-7.47627,0 -13.77953,-4.7988 -16.14739,-11.46667h-35.39662l10.64922,-74.52214z"></path></g></g></svg>