<svg xmlns="http://www.w3.org/2000/svg" x="0px" y="0px"
width="30" height="30"
viewBox="0 0 172 172"
style=" fill:#000000;"><g fill="none" fill-rule="nonzero" stroke="none" stroke-width="1" stroke-linecap="butt" stroke-linejoin="miter" stroke-miterlimit="10" stroke-dasharray="" stroke-dashoffset="0" font-family="none" font-weight="none" font-size="none" text-anchor="none" style="mix-blend-mode: normal"><path d="M0,172v-172h172v172z" fill="none"></path><g fill="#ffffff"><path d="M54.46667,17.2c-19.99787,0 -31.53333,15.6004 -31.53333,34.4c0,6.3296 3.02344,12.69844 3.02344,12.69844c-1.21547,0.69947 -3.21443,2.91979 -2.7099,6.86432c0.94027,7.35587 4.12925,9.21786 6.15885,9.37266c0.774,6.86853 8.1476,15.65272 10.7276,16.93125v11.46667c-5.73333,17.2 -40.13333,5.73333 -40.13333,45.86667h51.6c0,-23.9424 10.68461,-34.46199 21.11927,-40.17812c-1.73147,-1.4964 -3.12234,-3.29774 -3.91927,-5.68854v-11.46667c2.19587,-1.0836 7.81668,-7.58824 9.94375,-13.72864c-1.80027,-2.8552 -3.21103,-6.45807 -3.80729,-11.13073c-0.49307,-3.88146 0.08977,-7.25213 1.27657,-10.05573c-0.88867,-3.09027 -1.67969,-6.96116 -1.67969,-10.95156c0,-7.9464 1.64448,-15.22666 4.57995,-21.54479c-2.6488,-2.66027 -6.05341,-4.25521 -10.31328,-4.25521c0,0 -2.14427,-8.6 -14.33333,-8.6zM117.53333,17.2112c-19.99787,-0.00573 -31.53333,15.5892 -31.53333,34.3888c0,6.3296 3.02344,12.69844 3.02344,12.69844c-1.21547,0.69947 -3.21443,2.91979 -2.70989,6.86432c0.94026,7.35587 4.12925,9.21786 6.15885,9.37266c0.774,6.86853 8.14761,15.65272 10.72761,16.93125v11.46667c-5.73333,17.2 -40.13333,5.73333 -40.13333,45.86667h108.93333c0,-40.13333 -34.4,-28.66667 -40.13333,-45.86667v-11.46667c2.58,-1.27853 9.95361,-10.05725 10.72761,-16.92005c2.0296,-0.1548 5.21858,-2.02799 6.15885,-9.38386c0.50454,-3.95027 -1.49443,-6.16485 -2.70989,-6.86432c0,0 3.02344,-5.74418 3.02344,-12.68724c0,-13.92053 -5.46387,-25.8 -17.2,-25.8c0,0 -2.14427,-8.6 -14.33333,-8.6z"></path></g></g></svg>